<svg xmlns="http://www.w3.org/2000/svg" viewBox="0 0 549 106.3"><g fill="#fff"><path d="M29.6 61.1L43.5 1.4h14.8v90.1H43.8V50.1L35 91.5H24.5l-9.1-41.7v41.7H.8V1.4h14.8l14 59.7zM107.9 73.5c0 13-6.5 19.5-19.4 19.5-12.9 0-19.4-6.5-19.4-19.5v-54C69.1 6.5 75.6 0 88.5 0c13 0 19.4 6.5 19.4 19.4v54.1zM93 19.4c0-3.4-1.5-5.1-4.4-5.1h-.1c-2.9 0-4.4 1.7-4.4 5.1v54c0 3.4 1.5 5.1 4.4 5.1 3 0 4.5-1.7 4.5-5.1v-54zM147.6 91.5h-19.4L119 33.6l-4.3-32.2h15.1l8 70.6 8-70.6h15.1l-4.3 32.3-9 57.8zM168.8 1.4h15v90.1h-15V1.4zM195.7 1.4H231v14.4h-20.3v23.5h17.5v14.4h-17.5v23.5H231v14.4h-35.3V1.4z"/></g><g fill="#dfb875"><path d="M239.5 19.4c0-13 6.5-19.4 19.4-19.4 13 0 19.4 6.5 19.4 19.4v12.8h-15V19.4c0-3.4-1.5-5.1-4.4-5.1h-.1c-2.9 0-4.4 1.7-4.4 5.1v8c0 3.7 3.8 8.3 11.5 13.8 8.2 5.9 12.3 12.9 12.3 21.1v11.2c0 13-6.5 19.5-19.4 19.5-13 0-19.4-6.5-19.4-19.5V60.7h15v12.8c0 3.4 1.5 5.1 4.5 5.1 2.9 0 4.4-1.7 4.4-5.1V63.4c0-4-3.8-8.8-11.5-14.3-8.2-5.9-12.3-13-12.3-21.4v-8.3zM327.1 73.5c0 11.6-4.6 17.9-13.9 19.1.1.8 4.7 1.2 13.9 1.3v12.4c-8.5 0-14.2-.8-17.2-2.3-4-2-6.1-5.8-6.2-11.2-10.3-.8-15.4-7.2-15.4-19.3v-54c0-13 6.5-19.4 19.4-19.4 13 0 19.4 6.5 19.4 19.4v54zm-15-54.1c0-3.4-1.5-5.1-4.4-5.1h-.1c-2.9 0-4.4 1.7-4.4 5.1v54c0 3.4 1.5 5.1 4.4 5.1 3 0 4.5-1.7 4.5-5.1v-54zM376.3 73.5c0 13-6.5 19.5-19.4 19.5-12.9 0-19.4-6.5-19.4-19.5V1.4h15v72.1c0 3.4 1.5 5.1 4.4 5.1 3 0 4.5-1.7 4.5-5.1V1.4h15v72.1zM425.5 59.2l4.3 32.3h-15.1l-2.5-18.7h-11l-2.5 18.7h-15.1l4.3-32.2L397 1.4h19.4l9.1 57.8zm-15.3-.8l-3.6-27.3-3.6 27.3h7.2zM437.4 1.4h19.7c12.1 0 18.1 6.5 18.1 19.5v13.3c0 8.2-3.3 13.4-9.8 15.8l14.4 41.5h-16.3l-10.3-38.8h-.8v38.8h-15V1.4zm15 14.4v23.5h1.8c1.6 0 2.7-.1 3.2-.3 1.9-.8 2.8-2.4 2.8-4.8V20.9c0-3.4-1.5-5.1-4.4-5.1h-3.4zM487 1.4h35.3v14.4H502v23.5h17.5v14.4H502v23.5h20.3v14.4H487V1.4z"/></g><path d="M548 1.4l-.9 66.3h-15l-.9-66.3H548zm-16.9 73.7H548v16.4h-16.9V75.1z" fill="#fff"/></svg>